<?xml version="1.0" encoding="UTF-8" standalone="no"?>
<!-- Created with Inkscape (http://www.inkscape.org/) -->

<svg
   width="34.127106mm"
   height="11.27971mm"
   viewBox="0 0 34.127106 11.27971"
   version="1.1"
   id="svg50743"
   inkscape:version="1.2.2 (732a01da63, 2022-12-09)"
   sodipodi:docname="websiteName.svg"
   inkscape:export-filename="inkwell planet large outlined.png"
   inkscape:export-xdpi="1380.2383"
   inkscape:export-ydpi="1380.2383"
   xml:space="preserve"
   xmlns:inkscape="http://www.inkscape.org/namespaces/inkscape"
   xmlns:sodipodi="http://sodipodi.sourceforge.net/DTD/sodipodi-0.dtd"
   xmlns:xlink="http://www.w3.org/1999/xlink"
   xmlns="http://www.w3.org/2000/svg"
   xmlns:svg="http://www.w3.org/2000/svg"><sodipodi:namedview
     id="namedview50745"
     pagecolor="#ffffff"
     bordercolor="#000000"
     borderopacity="0.25"
     inkscape:showpageshadow="2"
     inkscape:pageopacity="0.0"
     inkscape:pagecheckerboard="0"
     inkscape:deskcolor="#d1d1d1"
     inkscape:document-units="mm"
     showgrid="false"
     inkscape:zoom="2.0888418"
     inkscape:cx="-28.00595"
     inkscape:cy="-99.576713"
     inkscape:window-width="1920"
     inkscape:window-height="1009"
     inkscape:window-x="-8"
     inkscape:window-y="-8"
     inkscape:window-maximized="1"
     inkscape:current-layer="layer6" /><defs
     id="defs50740"><linearGradient
       inkscape:collect="always"
       id="linearGradient226051"><stop
         style="stop-color:#ffffff;stop-opacity:1;"
         offset="0"
         id="stop226047" /><stop
         style="stop-color:#ffffff;stop-opacity:0;"
         offset="1"
         id="stop226049" /></linearGradient><linearGradient
       inkscape:collect="always"
       id="linearGradient220693"><stop
         style="stop-color:#d6c4ee;stop-opacity:1;"
         offset="0"
         id="stop220689" /><stop
         style="stop-color:#ffb7b7;stop-opacity:1;"
         offset="1"
         id="stop220697" /></linearGradient><linearGradient
       id="linearGradient176052-7"><stop
         style="stop-color:#000091;stop-opacity:1;"
         offset="0"
         id="stop176093" /><stop
         style="stop-color:#ff9f9f;stop-opacity:1;"
         offset="1"
         id="stop176095" /></linearGradient><linearGradient
       id="linearGradient176052-6"><stop
         style="stop-color:#8a8aff;stop-opacity:1;"
         offset="0"
         id="stop176088" /><stop
         style="stop-color:#fffbab;stop-opacity:1;"
         offset="0.5"
         id="stop176098" /><stop
         style="stop-color:#77cb77;stop-opacity:1;"
         offset="0.69794518"
         id="stop176100" /><stop
         style="stop-color:#ffaa6f;stop-opacity:1;"
         offset="0.8125"
         id="stop176830" /><stop
         style="stop-color:#f0b3ed;stop-opacity:1;"
         offset="0.93801367"
         id="stop176102" /></linearGradient><linearGradient
       id="linearGradient176052-5"><stop
         style="stop-color:#000091;stop-opacity:1;"
         offset="0"
         id="stop176083" /><stop
         style="stop-color:#ff9f9f;stop-opacity:1;"
         offset="1"
         id="stop176085" /></linearGradient><linearGradient
       id="linearGradient176052-4"><stop
         style="stop-color:#000091;stop-opacity:1;"
         offset="0"
         id="stop176078" /><stop
         style="stop-color:#ff9f9f;stop-opacity:1;"
         offset="1"
         id="stop176080" /></linearGradient><linearGradient
       id="linearGradient176052-3"><stop
         style="stop-color:#000091;stop-opacity:1;"
         offset="0"
         id="stop176073" /><stop
         style="stop-color:#ff9f9f;stop-opacity:1;"
         offset="1"
         id="stop176075" /></linearGradient><linearGradient
       id="linearGradient176052-2"><stop
         style="stop-color:#000091;stop-opacity:1;"
         offset="0"
         id="stop176068" /><stop
         style="stop-color:#ff9f9f;stop-opacity:1;"
         offset="1"
         id="stop176070" /></linearGradient><linearGradient
       id="linearGradient176052-1"><stop
         style="stop-color:#000091;stop-opacity:1;"
         offset="0"
         id="stop176063" /><stop
         style="stop-color:#ff9f9f;stop-opacity:1;"
         offset="1"
         id="stop176065" /></linearGradient><linearGradient
       id="linearGradient176052"><stop
         style="stop-color:#000091;stop-opacity:1;"
         offset="0"
         id="stop176058" /><stop
         style="stop-color:#000091;stop-opacity:0;"
         offset="1"
         id="stop176060" /></linearGradient><linearGradient
       id="linearGradient176052-8"><stop
         style="stop-color:#000091;stop-opacity:1;"
         offset="0"
         id="stop176048" /><stop
         style="stop-color:#ff9f9f;stop-opacity:1;"
         offset="1"
         id="stop176050" /></linearGradient><inkscape:path-effect
       effect="powerclip"
       id="path-effect64488"
       is_visible="true"
       lpeversion="1"
       inverse="true"
       flatten="false"
       hide_clip="false"
       message="Use fill-rule evenodd on &lt;b&gt;fill and stroke&lt;/b&gt; dialog if no flatten result after convert clip to paths." /><linearGradient
       id="linearGradient57276"
       inkscape:swatch="solid"><stop
         style="stop-color:#986bd5;stop-opacity:1;"
         offset="0"
         id="stop57274" /></linearGradient><clipPath
       clipPathUnits="userSpaceOnUse"
       id="clipPath60448"><rect
         style="opacity:1;fill:#986bd5;fill-opacity:1;stroke:#ddd2cf;stroke-width:0.25;stroke-dasharray:none;stroke-dashoffset:0;stroke-opacity:1"
         id="rect60450"
         width="24.953022"
         height="19.759754"
         x="50.412704"
         y="47.879402"
         ry="1.1643547" /></clipPath><clipPath
       clipPathUnits="userSpaceOnUse"
       id="clipPath64442"><rect
         style="opacity:1;fill:#ff7f2a;fill-opacity:1;stroke:none;stroke-width:0.25;stroke-dasharray:none;stroke-dashoffset:0;stroke-opacity:1"
         id="rect64444"
         width="20.420988"
         height="8.0609169"
         x="-15.042407"
         y="68.530762"
         ry="1.1643547"
         transform="rotate(-19.6776)" /></clipPath><clipPath
       clipPathUnits="userSpaceOnUse"
       id="clipPath64484"><rect
         style="display:block;opacity:1;fill:#ff7f2a;fill-opacity:1;stroke:none;stroke-width:0.25;stroke-dasharray:none;stroke-dashoffset:0;stroke-opacity:1"
         id="rect64486"
         width="5.7322073"
         height="3.9408927"
         x="60.009045"
         y="111.59891"
         ry="1.1643547" /></clipPath><clipPath
       clipPathUnits="userSpaceOnUse"
       id="clipPath198016"><ellipse
         style="font-variation-settings:normal;opacity:1;vector-effect:none;fill:#b5e9b1;fill-opacity:1;fill-rule:nonzero;stroke-width:0.988475;stroke-linecap:butt;stroke-linejoin:miter;stroke-miterlimit:4;stroke-dasharray:none;stroke-dashoffset:0;stroke-opacity:1;-inkscape-stroke:none;stop-color:#000000;stop-opacity:1"
         id="ellipse198018"
         cx="158.96468"
         cy="113.23859"
         rx="19.506424"
         ry="4.306613" /></clipPath><linearGradient
       inkscape:collect="always"
       xlink:href="#linearGradient220693"
       id="linearGradient220695"
       x1="63.573544"
       y1="148.94334"
       x2="94.497726"
       y2="148.94334"
       gradientUnits="userSpaceOnUse" /><clipPath
       clipPathUnits="userSpaceOnUse"
       id="clipPath64484-0"><rect
         style="display:none;opacity:1;fill:#ff7f2a;fill-opacity:1;stroke:none;stroke-width:0.25;stroke-dasharray:none;stroke-dashoffset:0;stroke-opacity:1"
         id="rect64486-3"
         width="5.7322073"
         height="3.9408927"
         x="60.009045"
         y="111.59891"
         ry="1.1643547"
         d="m 61.173399,111.59891 h 3.403498 c 0.645053,0 1.164355,0.5193 1.164355,1.16435 v 1.61219 c 0,0.64505 -0.519302,1.16435 -1.164355,1.16435 h -3.403498 c -0.645052,0 -1.164354,-0.5193 -1.164354,-1.16435 v -1.61219 c 0,-0.64505 0.519302,-1.16435 1.164354,-1.16435 z" /><path
         id="lpe_path-effect64488-3"
         style="opacity:1;fill:#ff7f2a;fill-opacity:1;stroke:none;stroke-width:0.25;stroke-dasharray:none;stroke-dashoffset:0;stroke-opacity:1"
         class="powerclip"
         d="M 42.663615,89.017945 H 126.27409 V 127.23254 H 42.663615 Z m 18.509784,22.580965 c -0.645052,0 -1.164354,0.5193 -1.164354,1.16435 v 1.61219 c 0,0.64505 0.519302,1.16435 1.164354,1.16435 h 3.403498 c 0.645053,0 1.164355,-0.5193 1.164355,-1.16435 v -1.61219 c 0,-0.64505 -0.519302,-1.16435 -1.164355,-1.16435 z" /></clipPath><inkscape:path-effect
       effect="powerclip"
       id="path-effect64488-8"
       is_visible="true"
       lpeversion="1"
       inverse="true"
       flatten="false"
       hide_clip="false"
       message="Use fill-rule evenodd on &lt;b&gt;fill and stroke&lt;/b&gt; dialog if no flatten result after convert clip to paths." /><clipPath
       clipPathUnits="userSpaceOnUse"
       id="clipath_lpe_path-effect64488-8"><rect
         style="display:none;opacity:1;fill:#ff7f2a;fill-opacity:1;stroke:none;stroke-width:0.25;stroke-dasharray:none;stroke-dashoffset:0;stroke-opacity:1"
         id="rect225935"
         width="5.7322073"
         height="3.9408927"
         x="60.009045"
         y="111.59891"
         ry="1.1643547"
         d="m 61.173399,111.59891 h 3.403498 c 0.645053,0 1.164355,0.5193 1.164355,1.16435 v 1.61219 c 0,0.64505 -0.519302,1.16435 -1.164355,1.16435 h -3.403498 c -0.645052,0 -1.164354,-0.5193 -1.164354,-1.16435 v -1.61219 c 0,-0.64505 0.519302,-1.16435 1.164354,-1.16435 z" /></clipPath><clipPath
       clipPathUnits="userSpaceOnUse"
       id="clipPath226007"><rect
         style="font-variation-settings:normal;opacity:1;vector-effect:none;fill:#e27d8d;fill-opacity:0.377163;fill-rule:nonzero;stroke-width:1.02284;stroke-linecap:butt;stroke-linejoin:miter;stroke-miterlimit:4;stroke-dasharray:none;stroke-dashoffset:0;stroke-opacity:1;-inkscape-stroke:none;stop-color:#000000;stop-opacity:1"
         id="rect226009"
         width="21.971191"
         height="9.8798771"
         x="104.83025"
         y="141.68349"
         ry="1.1643547"
         transform="matrix(0.93393866,-0.35743331,0,1,0,0)" /></clipPath><linearGradient
       inkscape:collect="always"
       xlink:href="#linearGradient226051"
       id="linearGradient226053"
       x1="63.175545"
       y1="148.94334"
       x2="94.895721"
       y2="148.94334"
       gradientUnits="userSpaceOnUse" /><clipPath
       clipPathUnits="userSpaceOnUse"
       id="clipPath64442-1"><rect
         style="opacity:1;fill:#ff7f2a;fill-opacity:1;stroke:none;stroke-width:0.25;stroke-dasharray:none;stroke-dashoffset:0;stroke-opacity:1"
         id="rect64444-0"
         width="20.420988"
         height="8.0609169"
         x="-15.042407"
         y="68.530762"
         ry="1.1643547"
         transform="rotate(-19.6776)" /></clipPath><clipPath
       clipPathUnits="userSpaceOnUse"
       id="clipPath198016-2"><ellipse
         style="font-variation-settings:normal;opacity:1;vector-effect:none;fill:#b5e9b1;fill-opacity:1;fill-rule:nonzero;stroke-width:0.988475;stroke-linecap:butt;stroke-linejoin:miter;stroke-miterlimit:4;stroke-dasharray:none;stroke-dashoffset:0;stroke-opacity:1;-inkscape-stroke:none;stop-color:#000000;stop-opacity:1"
         id="ellipse198018-7"
         cx="158.96468"
         cy="113.23859"
         rx="19.506424"
         ry="4.306613" /></clipPath><clipPath
       clipPathUnits="userSpaceOnUse"
       id="clipPath64484-7"><rect
         style="display:none;opacity:1;fill:#ff7f2a;fill-opacity:1;stroke:none;stroke-width:0.25;stroke-dasharray:none;stroke-dashoffset:0;stroke-opacity:1"
         id="rect64486-1"
         width="5.7322073"
         height="3.9408927"
         x="60.009045"
         y="111.59891"
         ry="1.1643547"
         d="m 61.173399,111.59891 h 3.403498 c 0.645053,0 1.164355,0.5193 1.164355,1.16435 v 1.61219 c 0,0.64505 -0.519302,1.16435 -1.164355,1.16435 h -3.403498 c -0.645052,0 -1.164354,-0.5193 -1.164354,-1.16435 v -1.61219 c 0,-0.64505 0.519302,-1.16435 1.164354,-1.16435 z" /><path
         id="lpe_path-effect64488-6"
         style="opacity:1;fill:#ff7f2a;fill-opacity:1;stroke:none;stroke-width:0.25;stroke-dasharray:none;stroke-dashoffset:0;stroke-opacity:1"
         class="powerclip"
         d="M 42.663615,89.017945 H 126.27409 V 127.23254 H 42.663615 Z m 18.509784,22.580965 c -0.645052,0 -1.164354,0.5193 -1.164354,1.16435 v 1.61219 c 0,0.64505 0.519302,1.16435 1.164354,1.16435 h 3.403498 c 0.645053,0 1.164355,-0.5193 1.164355,-1.16435 v -1.61219 c 0,-0.64505 -0.519302,-1.16435 -1.164355,-1.16435 z" /></clipPath><inkscape:path-effect
       effect="powerclip"
       id="path-effect64488-0"
       is_visible="true"
       lpeversion="1"
       inverse="true"
       flatten="false"
       hide_clip="false"
       message="Use fill-rule evenodd on &lt;b&gt;fill and stroke&lt;/b&gt; dialog if no flatten result after convert clip to paths." /><clipPath
       clipPathUnits="userSpaceOnUse"
       id="clipPath60448-6"><rect
         style="opacity:1;fill:#986bd5;fill-opacity:1;stroke:#ddd2cf;stroke-width:0.25;stroke-dasharray:none;stroke-dashoffset:0;stroke-opacity:1"
         id="rect60450-9"
         width="24.953022"
         height="19.759754"
         x="50.412704"
         y="47.879402"
         ry="1.1643547" /></clipPath><clipPath
       clipPathUnits="userSpaceOnUse"
       id="clipPath226007-6"><rect
         style="font-variation-settings:normal;display:none;opacity:1;vector-effect:none;fill:#e27d8d;fill-opacity:0.377163;fill-rule:nonzero;stroke-width:1.02284;stroke-linecap:butt;stroke-linejoin:miter;stroke-miterlimit:4;stroke-dasharray:none;stroke-dashoffset:0;stroke-opacity:1;-inkscape-stroke:none;stop-color:#000000;stop-opacity:1"
         id="rect226009-8"
         width="21.971191"
         height="9.8798771"
         x="104.83025"
         y="141.68349"
         ry="1.1643547"
         transform="matrix(0.93393866,-0.35743331,0,1,0,0)"
         d="m 105.99461,141.68349 h 19.64248 c 0.64505,0 1.16436,0.5193 1.16436,1.16435 v 7.55117 c 0,0.64505 -0.51931,1.16435 -1.16436,1.16435 h -19.64248 c -0.64505,0 -1.16436,-0.5193 -1.16436,-1.16435 v -7.55117 c 0,-0.64505 0.51931,-1.16435 1.16436,-1.16435 z" /><path
         id="lpe_path-effect64488-8-4"
         style="font-variation-settings:normal;opacity:1;vector-effect:none;fill:#e27d8d;fill-opacity:0.377163;fill-rule:nonzero;stroke-width:1.02284;stroke-linecap:butt;stroke-linejoin:miter;stroke-miterlimit:4;stroke-dasharray:none;stroke-dashoffset:0;stroke-opacity:1;-inkscape-stroke:none;stop-color:#000000;stop-opacity:1"
         class="powerclip"
         d="M 42.663615,89.017945 H 126.27409 V 127.23254 H 42.663615 Z m 63.330995,52.665545 c -0.64505,0 -1.16436,0.5193 -1.16436,1.16435 v 7.55117 c 0,0.64505 0.51931,1.16435 1.16436,1.16435 h 19.64248 c 0.64505,0 1.16436,-0.5193 1.16436,-1.16435 v -7.55117 c 0,-0.64505 -0.51931,-1.16435 -1.16436,-1.16435 z" /></clipPath><inkscape:path-effect
       effect="powerclip"
       id="path-effect64488-8-9"
       is_visible="true"
       lpeversion="1"
       inverse="true"
       flatten="false"
       hide_clip="false"
       message="Use fill-rule evenodd on &lt;b&gt;fill and stroke&lt;/b&gt; dialog if no flatten result after convert clip to paths." /><clipPath
       clipPathUnits="userSpaceOnUse"
       id="clipath_lpe_path-effect64488-0"><path
         id="lpe_path-effect64488-0"
         style="opacity:1;fill:#ff7f2a;fill-opacity:1;stroke:none;stroke-width:0.25;stroke-dasharray:none;stroke-dashoffset:0;stroke-opacity:1"
         class="powerclip"
         d="M 42.663615,89.017945 H 126.27409 V 127.23254 H 42.663615 Z m 18.509784,22.580965 c -0.645052,0 -1.164354,0.5193 -1.164354,1.16435 v 1.61219 c 0,0.64505 0.519302,1.16435 1.164354,1.16435 h 3.403498 c 0.645053,0 1.164355,-0.5193 1.164355,-1.16435 v -1.61219 c 0,-0.64505 -0.519302,-1.16435 -1.164355,-1.16435 z" /></clipPath><clipPath
       clipPathUnits="userSpaceOnUse"
       id="clipath_lpe_path-effect64488-8-9"><path
         id="lpe_path-effect64488-8-9"
         style="font-variation-settings:normal;opacity:1;vector-effect:none;fill:#e27d8d;fill-opacity:0.377163;fill-rule:nonzero;stroke-width:1.02284;stroke-linecap:butt;stroke-linejoin:miter;stroke-miterlimit:4;stroke-dasharray:none;stroke-dashoffset:0;stroke-opacity:1;-inkscape-stroke:none;stop-color:#000000;stop-opacity:1"
         class="powerclip"
         d="M 42.663615,89.017945 H 126.27409 V 127.23254 H 42.663615 Z m 63.330995,52.665545 c -0.64505,0 -1.16436,0.5193 -1.16436,1.16435 v 7.55117 c 0,0.64505 0.51931,1.16435 1.16436,1.16435 h 19.64248 c 0.64505,0 1.16436,-0.5193 1.16436,-1.16435 v -7.55117 c 0,-0.64505 -0.51931,-1.16435 -1.16436,-1.16435 z" /></clipPath><linearGradient
       inkscape:collect="always"
       xlink:href="#linearGradient220693"
       id="linearGradient34847"
       gradientUnits="userSpaceOnUse"
       gradientTransform="matrix(1.1001029,0,0,0.90900587,-90.731147,15.242588)"
       x1="63.573544"
       y1="148.94334"
       x2="94.497726"
       y2="148.94334" /></defs><g
     inkscape:label="Layer 1"
     inkscape:groupmode="layer"
     id="layer1"
     style="display:inline"
     transform="translate(-69.883779,-129.75052)" /><g
     inkscape:groupmode="layer"
     id="layer6"
     inkscape:label="Layer 2"
     style="display:inline"
     transform="translate(-69.883779,-129.75052)"><text
       xml:space="preserve"
       style="font-style:normal;font-variant:normal;font-weight:normal;font-stretch:normal;font-size:15.3166px;font-family:'Amatic SC';-inkscape-font-specification:'Amatic SC';opacity:1;fill:url(#linearGradient220695);fill-opacity:1;stroke:none;stroke-width:0.796;stroke-dasharray:none;stroke-dashoffset:0;stroke-opacity:1"
       x="63.129364"
       y="154.69473"
       id="text65998"
       transform="scale(1.1001029,0.90900587)"><tspan
         sodipodi:role="line"
         id="tspan65996"
         style="font-style:normal;font-variant:normal;font-weight:bold;font-stretch:normal;font-family:'Amatic SC';-inkscape-font-specification:'Amatic SC';fill:url(#linearGradient220695);fill-opacity:1;stroke:none;stroke-width:0.796;stroke-dasharray:none;stroke-opacity:1"
         x="63.129364"
         y="154.69473">WHIMSY</tspan></text><g
       id="g36070"
       style="stroke:#000000;stroke-width:0.1;stroke-dasharray:none;stroke-opacity:0.362117"
       transform="translate(90.734932,-15.242636)"><path
         id="path34764"
         style="font-weight:bold;font-size:15.3166px;font-family:'Amatic SC';-inkscape-font-specification:'Amatic SC';fill:url(#linearGradient34847);stroke:#000000;stroke-width:0.1;stroke-dasharray:none;stroke-opacity:0.362117"
         d="m -14.340322,145.04316 c -0.235898,0 -0.398477,0.0462 -0.488343,0.13901 -0.07863,0.0835 -0.118339,0.23197 -0.118339,0.44545 0,0.65902 -0.04449,1.36899 -0.134358,2.13011 -0.07863,0.75183 -0.207843,1.66628 -0.387574,2.74298 -0.179731,1.17881 -0.286694,1.92147 -0.320394,2.22777 -0.157265,-0.70542 -0.31454,-1.30433 -0.471805,-1.79627 -0.247131,-0.84465 -0.438294,-1.56864 -0.573092,-2.17196 -0.123566,-0.61261 -0.185002,-1.1835 -0.185002,-1.71256 v -0.20877 c 0,-0.27846 -0.202286,-0.41755 -0.606681,-0.41755 -0.112332,0 -0.213475,0.0462 -0.303341,0.13901 -0.08987,0.0928 -0.134875,0.19039 -0.134875,0.29249 v 0.26459 c 0,0.21347 -0.02807,0.60791 -0.08423,1.18339 -0.04493,0.43625 -0.140255,1.18359 -0.286287,2.24172 l -0.101286,0.72399 -0.168465,1.16943 c -0.01123,-0.009 -0.05042,-0.32949 -0.117822,-0.96066 l -0.117823,-1.12758 c -0.146032,-1.31803 -0.326071,-2.48783 -0.539502,-3.50883 -0.224663,-0.96532 -0.466139,-1.44797 -0.724503,-1.44797 -0.247131,0 -0.443596,0.11158 -0.589628,0.33434 0.123566,0.25062 0.415354,1.74944 0.875915,4.49689 0.471795,2.73816 0.707967,4.32988 0.707967,4.77541 0,0.70543 0.207589,1.05834 0.623218,1.05834 0.123565,0 0.230528,-0.0415 0.320394,-0.12506 0.101099,-0.0835 0.151412,-0.17176 0.151412,-0.26458 0,-0.65902 0.03971,-1.32747 0.118339,-2.00505 0.0674,-0.70542 0.134655,-1.31368 0.202055,-1.82418 0.07863,-0.51979 0.190898,-1.20173 0.33693,-2.04638 l 0.151412,0.90485 0.303341,1.62884 c 0.314529,1.57792 0.578768,2.63146 0.792199,3.16053 0.168498,0.38056 0.314651,0.57103 0.438217,0.57103 0.168498,0 0.291888,-0.0462 0.37052,-0.13901 0.08987,-0.0835 0.134875,-0.19979 0.134875,-0.3483 0,-0.68687 0.06195,-1.48039 0.185519,-2.38073 0.123565,-0.90963 0.27502,-1.75921 0.454752,-2.54817 0.179731,-0.80753 0.331188,-1.65658 0.454753,-2.54765 0.123565,-0.90034 0.185518,-1.68453 0.185518,-2.35283 0.112332,-0.11138 0.168465,-0.21829 0.168465,-0.32039 0,-0.11136 -0.05613,-0.19958 -0.168465,-0.26458 -0.101098,-0.0743 -0.219185,-0.11111 -0.353983,-0.11111 z m 17.1028316,0.0274 c -0.157265,0 -0.2922944,0.0374 -0.4046265,0.11162 -0.1123326,0.065 -0.1795888,0.15787 -0.2020548,0.27854 v 0.0832 c -0.0337,0.46409 -0.112596,1.04431 -0.2361613,1.74046 -0.1123321,0.58477 -0.2299015,1.12762 -0.3534668,1.62884 -0.1123322,0.50123 -0.2584847,1.08612 -0.4382162,1.75442 l -0.32039384,1.14153 -0.11782227,0.45992 -0.25269775,-1.07229 c -0.0561661,-0.27845 -0.15148888,-0.68689 -0.28628744,-1.22525 -0.0224661,-0.15778 -0.06747591,-0.35708 -0.13487548,-0.59841 -0.44932848,-1.72643 -0.81471008,-2.87754 -1.09554032,-3.45302 -0.1123321,-0.21348 -0.2129582,-0.36659 -0.3028239,-0.4594 -0.089866,-0.10212 -0.1798853,-0.15817 -0.269751,-0.16743 l -0.4552694,0.22272 c -0.022466,0.79825 -0.03359,1.39715 -0.03359,1.79628 l 0.03359,2.70112 0.034107,2.68718 c 0,0.25061 -0.016943,0.62636 -0.050643,1.12758 l -0.03359,1.14153 c 0,0.27846 0.050313,0.49227 0.1514119,0.64079 0.1123322,0.13922 0.3087978,0.20877 0.5896281,0.20877 0.1684982,-0.1578 0.2526978,-0.33425 0.2526978,-0.52917 l -0.03359,-1.90737 -0.03359,-0.94672 c -0.056166,-1.41085 -0.084233,-2.36681 -0.084233,-2.86804 l 0.03359,-1.6707 0.50539551,1.55908 c 0.25836389,0.80753 0.44370628,1.48999 0.55603841,2.0469 0.1235653,0.54764 0.18551839,1.06248 0.18551839,1.54513 0,0.8725 0.20228566,1.30896 0.60668132,1.30896 0.23589747,0 0.41011657,-0.11158 0.52244877,-0.33434 0.089866,-0.21348 0.1459991,-0.42212 0.1684651,-0.62632 l 0.050643,-0.26458 v -0.0837 c 0.1010989,-0.53835 0.2748013,-1.22497 0.521932,-2.06034 0.2471307,-0.80753 0.4213498,-1.43394 0.5224487,-1.87947 v 0.71003 c 0,1.08598 0.011124,2.06064 0.03359,2.92385 0,0.40841 0.00582,0.7006 0.017053,0.87695 l 0.017053,2.06086 c 0,0.17635 0.033369,0.31077 0.100769,0.40359 0.067399,0.0928 0.1574189,0.13901 0.269751,0.13901 0.1684981,0 0.319954,-0.0836 0.4547526,-0.25063 0.1347985,-0.16707 0.2025716,-0.35702 0.2025716,-0.57051 0,-0.72399 -0.01164,-1.3229 -0.034107,-1.79627 -0.022466,-1.03957 -0.061656,-2.10245 -0.1178222,-3.18843 -0.1010989,-2.21838 -0.151412,-3.88432 -0.151412,-4.99815 0,-0.0835 -0.039706,-0.16242 -0.118339,-0.23668 -0.078632,-0.0743 -0.1681352,-0.11162 -0.2692342,-0.11162 z m 4.5490763,0.0837 c -0.4156289,0 -0.7635504,0.11158 -1.0443807,0.33434 -0.2808303,0.2042 -0.4942392,0.45488 -0.640271,0.7519 -0.1347986,0.29702 -0.2025716,0.61256 -0.2025716,0.94671 0,0.41768 0.084716,0.84896 0.2532145,1.29449 0.1123321,0.31559 0.2415415,0.6083 0.3875733,0.87747 0.157265,0.26917 0.3759771,0.63558 0.6568074,1.09967 l 0.269751,0.44545 c 0.2583639,0.41769 0.4606495,0.84948 0.6066813,1.29502 0.157265,0.43624 0.2356446,0.85403 0.2356446,1.25315 0,0.37128 -0.1011428,0.78905 -0.3033407,1.25315 -0.1010989,0.25062 -0.2414315,0.45457 -0.4211629,0.61237 -0.1684982,0.1485 -0.3591438,0.22272 -0.5725749,0.22272 -0.056166,0 -0.2023187,-0.0368 -0.4382161,-0.1111 -0.2134311,-0.0743 -0.3765269,-0.11162 -0.4888591,-0.11162 -0.1235649,0 -0.2188878,0.0374 -0.2862874,0.11162 -0.0674,0.065 -0.1012858,0.15269 -0.1012858,0.26407 0,0.11138 0.09002,0.20895 0.2697509,0.29248 0.2920636,0.12067 0.6405018,0.18139 1.0448975,0.18139 0.370696,0 0.7074943,-0.0836 1.010791,-0.25063 0.3032968,-0.1578 0.5505922,-0.37628 0.7415568,-0.65474 0.3594629,-0.53835 0.5389852,-1.1139 0.5389852,-1.72651 0,-0.41768 -0.056133,-0.83495 -0.1684652,-1.25264 -0.112332,-0.41769 -0.2637879,-0.79395 -0.4547526,-1.1281 L 7.0252985,149.2057 c -0.1909646,-0.32487 -0.3482405,-0.66791 -0.4718058,-1.02991 -0.1123322,-0.37127 -0.1684652,-0.73353 -0.1684652,-1.08624 0,-0.17635 0.033886,-0.35281 0.1012858,-0.52917 0.078633,-0.18564 0.1908986,-0.34809 0.3369303,-0.48731 0.157265,-0.14854 0.3367874,-0.23209 0.5389852,-0.25063 0.1460318,0.0928 0.3652607,0.13953 0.6573242,0.13953 l 0.2862875,-0.29249 c -0.078633,-0.14851 -0.2131451,-0.26943 -0.4041097,-0.36225 -0.1909646,-0.1021 -0.3879471,-0.15296 -0.5901449,-0.15296 z m -12.013737,0.15296 c -0.3257631,0 -0.7245144,0.0327 -1.1963094,0.0977 -0.2583639,0.0371 -0.4717728,0.0973 -0.640271,0.18087 -0.1572649,0.0835 -0.2361613,0.1811 -0.2361613,0.29248 0,0.22277 0.1292094,0.33435 0.3875733,0.33435 0.1347985,0 0.2640079,-0.0187 0.3875732,-0.0558 0.0337,0.2042 0.050643,0.45955 0.050643,0.76584 l -0.016536,0.71004 c -0.011233,0.21349 -0.017053,0.45015 -0.017053,0.71003 0,0.724 0.050313,1.79621 0.1514119,3.21634 0.1123322,1.36445 0.1684652,2.44082 0.1684652,3.22978 0,0.12067 -0.022247,0.20423 -0.067179,0.25063 -0.0337,0.0464 -0.095653,0.0698 -0.1855184,0.0698 -0.056166,0 -0.1064793,-0.005 -0.1514119,-0.014 h -0.2020549 c -0.3369963,0 -0.5059123,0.11158 -0.5059123,0.33435 0,0.27845 0.4834677,0.41754 1.449524,0.41754 0.089866,0 0.3255211,-0.009 0.7074503,-0.0279 h 0.3369304 c 0.056166,-0.009 0.090052,-0.014 0.1012858,-0.014 l 0.4211629,-0.23668 v -0.0837 c 0,-0.32486 -0.2356554,-0.48731 -0.7074504,-0.48731 -0.1460317,0 -0.2588145,0.005 -0.3374471,0.014 v -0.52917 c 0,-0.90963 -0.067256,-2.26937 -0.2020548,-4.07934 -0.1460318,-1.72644 -0.2191081,-3.0815 -0.2191081,-4.06538 0,-0.11138 0.022763,-0.18559 0.067696,-0.22273 0.056166,-0.0464 0.1403656,-0.0698 0.2526978,-0.0698 h 0.1348755 c 0.044933,0.009 0.1010656,0.0139 0.1684652,0.0139 0.1123318,0 0.2018346,-0.0369 0.2692342,-0.1111 0.078632,-0.0743 0.118339,-0.16249 0.118339,-0.26459 0,-0.1021 -0.05083,-0.19033 -0.1519287,-0.26458 -0.089866,-0.0743 -0.2021318,-0.11162 -0.3369304,-0.11162 z m -4.9537028,0.0145 v 0.37569 l 0.03359,2.32492 c 0.022466,0.68687 0.03359,1.4342 0.03359,2.24172 -0.1797313,0 -0.4550931,0.014 -0.8257891,0.0419 -0.157264,0.0185 -0.314024,0.0326 -0.471289,0.0419 -0.157264,0.009 -0.270047,0.014 -0.337447,0.014 -0.02247,-0.14851 -0.03359,-0.26944 -0.03359,-0.36225 0,-0.10211 0.0058,-0.19033 0.01705,-0.26458 v -0.25063 c 0,-0.32487 -0.01694,-0.80753 -0.05064,-1.44798 -0.04493,-0.55691 -0.06718,-1.03022 -0.06718,-1.42007 0,-0.39912 0.02225,-0.74736 0.06718,-1.04438 -0.05617,-0.0557 -0.146186,-0.10656 -0.269751,-0.15296 -0.112332,-0.0464 -0.224598,-0.0698 -0.336931,-0.0698 -0.190965,0 -0.286287,0.0836 -0.286287,0.25063 0,0.52906 0.0053,0.93751 0.01654,1.22525 0,1.56864 0.03971,3.03529 0.118339,4.39973 0.112332,2.01417 0.257969,3.33706 0.4377,3.96823 0.123565,0.42697 0.258594,0.64027 0.404626,0.64027 0.101099,0 0.185298,-0.0374 0.252698,-0.11162 0.0674,-0.0835 0.101286,-0.17125 0.101286,-0.26407 0,-0.46409 -0.04501,-1.25346 -0.134876,-2.36729 -0.101099,-1.04886 -0.151928,-1.83304 -0.151928,-2.35283 0.202198,-0.065 0.533693,-0.0977 0.994254,-0.0977 0.112332,0 0.3034943,0.0187 0.5730913,0.0558 0.089866,1.33659 0.1348755,2.97502 0.1348755,4.91495 0,0.12994 0.03337,0.23686 0.1007691,0.32039 0.078632,0.0928 0.1908985,0.13901 0.3369303,0.13901 0.1347986,0 0.2475814,-0.0509 0.3374471,-0.15296 0.1010989,-0.1021 0.151412,-0.21836 0.151412,-0.3483 0,-1.02101 -0.050313,-2.55253 -0.151412,-4.59455 -0.1123321,-2.25551 -0.1689819,-3.78236 -0.1689819,-4.5806 v -0.3204 c -0.022467,-0.25061 -0.083903,-0.42655 -0.1850017,-0.52865 -0.056166,-0.065 -0.1403656,-0.11634 -0.2526977,-0.15347 -0.1123322,-0.0464 -0.2415415,-0.0693 -0.3875733,-0.0693 z m 20.0680259,0.0134 c -0.101099,0 -0.196422,0.0234 -0.286288,0.0698 -0.08986,0.0464 -0.1348751,0.10191 -0.1348751,0.16691 0,0.34343 0.061436,0.7472 0.1850021,1.2113 0.123564,0.45481 0.275537,0.88194 0.455269,1.28106 0.190964,0.41769 0.34824,0.85416 0.471806,1.30896 0.123564,0.45481 0.185001,0.85858 0.185001,1.2113 0,0.28774 0.05665,0.6915 0.168982,1.21129 0.1011,0.52907 0.151412,0.92817 0.151412,1.19735 0,0.29702 -0.01694,0.74697 -0.05064,1.3503 l -0.03359,1.35031 c 0,0.0928 0.03919,0.17167 0.117822,0.23667 0.08987,0.065 0.191009,0.0977 0.303341,0.0977 0.157264,0 0.292294,-0.0415 0.404626,-0.12505 0.112333,-0.0743 0.168465,-0.16716 0.168465,-0.27854 v -0.3483 l -0.03359,-0.33383 -0.03411,-0.32039 -0.03359,-1.85157 c -0.0337,-0.82609 -0.05064,-1.43901 -0.05064,-1.83813 v -0.22273 c -0.01123,-0.0278 -0.0054,-0.1114 0.01705,-0.25063 l 0.03359,-0.22272 c 0,-0.53836 0.13503,-1.32253 0.404627,-2.35283 0.269596,-1.03029 0.40411,-1.81032 0.40411,-2.33939 0,-0.0928 -0.151457,-0.13901 -0.454753,-0.13901 -0.157265,0 -0.292294,0.10225 -0.404626,0.30644 -0.1011,0.18565 -0.190603,0.45447 -0.269235,0.80719 -0.101099,0.51049 -0.185298,1.15093 -0.252697,1.92133 -0.02247,0.24133 -0.05105,0.43647 -0.08475,0.58497 l -0.168465,-0.61236 -0.218591,-0.96067 c -0.02247,-0.0835 -0.09554,-0.34355 -0.219108,-0.7798 -0.123566,-0.43625 -0.252775,-0.77514 -0.387574,-1.01647 -0.112331,-0.21349 -0.230417,-0.3204 -0.353983,-0.3204 z" /></g></g></svg>
